<svg xmlns="http://www.w3.org/2000/svg" width="512" height="512" viewBox="0 0 108 108" role="img" aria-label="數字加減 App Icon">
  <rect width="108" height="108" rx="24" fill="#9ADFFF"/>
  <circle cx="54" cy="54" r="44" fill="#FFEFAE"/>
  <path d="M0 78 C18 64, 38 66, 54 76 C70 86, 88 86, 108 72 L108 108 L0 108 Z" fill="#B8E986"/>

  <circle cx="24" cy="30" r="11" fill="#66BB6A"/>
  <rect x="23" y="24" width="2" height="12" fill="#fff"/>
  <rect x="19" y="29" width="10" height="2" fill="#fff"/>

  <circle cx="84" cy="30" r="11" fill="#FF7043"/>
  <rect x="79" y="29" width="10" height="2" fill="#fff"/>

  <circle cx="38" cy="42" r="9" fill="#FFB85D"/>
  <circle cx="70" cy="42" r="9" fill="#FFB85D"/>
  <circle cx="54" cy="58" r="26" fill="#FFD792"/>
  <circle cx="54" cy="67" r="13" fill="#FFE9BC"/>

  <circle cx="45.5" cy="57" r="2.3" fill="#2F2B28"/>
  <circle cx="62.5" cy="57" r="2.3" fill="#2F2B28"/>
  <circle cx="40" cy="64" r="2.8" fill="#FF8A80"/>
  <circle cx="68" cy="64" r="2.8" fill="#FF8A80"/>

  <path d="M54 60 L57.2 63.2 H50.8 Z" fill="#5D4037"/>
  <path d="M49 67 C51.5 70.4, 56.5 70.4, 59 67 V68.8 C56.2 71.3, 51.8 71.3, 49 68.8 Z" fill="#5D4037"/>
</svg>

